<?xml version="1.0" encoding="UTF-8" standalone="no"?>
<!DOCTYPE svg PUBLIC "-//W3C//DTD SVG 1.1//EN" "http://www.w3.org/Graphics/SVG/1.1/DTD/svg11.dtd">
<!-- Created with Vectornator (http://vectornator.io/) -->
<svg height="100%" stroke-miterlimit="10" style="fill-rule:nonzero;clip-rule:evenodd;stroke-linecap:round;stroke-linejoin:round;" version="1.1" viewBox="0 0 580.665 580.653" width="100%" xml:space="preserve" xmlns="http://www.w3.org/2000/svg" xmlns:vectornator="http://vectornator.io" xmlns:xlink="http://www.w3.org/1999/xlink">
<defs/>
<g id="Ebene-2" vectornator:layerName="Ebene 2">
<g opacity="1">
<g opacity="1">
<path d="M241.584 185.228C165.796 202.548 179.899 281.375 181.695 316.929C183.755 357.721 209.782 426.291 220.302 455.293C226.65 472.792 253.972 579.066 293.476 579.52C330.736 579.948 351.75 486.889 359.916 455.721C367.996 424.878 382.574 389.185 392.687 325.497C401.665 268.952 422.846 199.229 343.755 184.135C334.776 182.421 266.99 179.423 241.584 185.228Z" fill="#ee7501" fill-rule="evenodd" opacity="1" stroke="#ee7501" stroke-linecap="round" stroke-linejoin="round" stroke-width="1"/>
<path d="M256.021 179.807C253.772 175.516 205.149 186.928 186.035 229.985C169.43 267.389 183.759 344.192 186.662 355.269C188.891 363.778 228.706 485.17 231.784 492.514C233.373 496.303 248.092 532.27 248.092 532.27C248.092 532.27 236.715 486.442 226.144 432.114C219.502 397.982 220.333 381.415 219.25 339.123C218.277 301.103 214.95 262.345 257.5 244.545C298.96 227.201 371.777 245.523 367.676 222.039C364.971 206.554 296.874 177.609 286.002 178.552C264.993 180.374 297.279 157.642 274.881 177.782" fill="#f48416" fill-rule="evenodd" opacity="1" stroke="#f48416" stroke-linecap="round" stroke-linejoin="round" stroke-width="1"/>
<path d="M275.151 181.058C279.697 181.404 336.791 177.48 361.716 188.439C383.9 198.192 397.947 212.87 400.82 232.286C405.632 264.813 399.251 295.088 393.395 330.558C387.17 368.256 386.579 367.577 375.554 408.39C350.697 500.406 328.199 575.085 298.154 579.058C287.942 580.409 277.627 576.303 264.977 561.303C261.013 556.602 253.624 543.129 253.624 543.129C253.624 543.129 272.45 555.094 282.687 548.605C304.44 534.817 336.153 456.93 354.203 384.27C367.615 330.279 375.877 289.964 359.102 250.802C348.169 225.277 308.141 239.548 278.536 222.363C251.487 206.661 268.371 183.582 272.406 180.965" fill="#c55719" fill-rule="evenodd" opacity="1" stroke="#c55719" stroke-linecap="round" stroke-linejoin="round" stroke-width="1"/>
<path d="M196.186 333.544C190.727 303.949 196.379 266.959 204.195 273.892C212.011 280.825 205.635 297.021 208.271 330.896C210.817 363.624 223.02 406.042 219.82 406.678C215.941 407.449 202.848 369.661 196.186 333.544Z" fill="#fec18a" fill-rule="evenodd" opacity="1" stroke="#fec18a" stroke-linecap="round" stroke-linejoin="round" stroke-width="1"/>
<path d="M223.781 425.854C230.721 424.771 234.196 461.408 232.924 462.314C231.639 463.23 216.933 426.922 223.781 425.854Z" fill="#fec18a" fill-rule="evenodd" opacity="1" stroke="#fec18a" stroke-linecap="round" stroke-linejoin="round" stroke-width="1"/>
<path d="M236.268 249.805C203.253 246.015 195.612 230.17 193.557 228.094" fill="none" fill-rule="evenodd" opacity="1" stroke="#fec18a" stroke-linecap="round" stroke-linejoin="round" stroke-width="5"/>
<path d="M210.108 206.18C210.143 206.87 220.664 220.906 237.282 224.332" fill="none" fill-rule="evenodd" opacity="1" stroke="#fec18a" stroke-linecap="round" stroke-linejoin="round" stroke-width="5"/>
<path d="M302.592 264.506C311.869 267.807 319.723 269.066 330.525 264.078" fill="none" fill-rule="evenodd" opacity="1" stroke="#fec18a" stroke-linecap="round" stroke-linejoin="round" stroke-width="5"/>
<path d="M397.128 225.958C380.378 246.683 367.703 244.517 366.54 245.024" fill="none" fill-rule="evenodd" opacity="1" stroke="#fec18a" stroke-linecap="round" stroke-linejoin="round" stroke-width="5"/>
<path d="M241.698 356.621C241.53 356.522 247.82 359.118 257.563 356.368" fill="none" fill-rule="evenodd" opacity="1" stroke="#fec18a" stroke-linecap="round" stroke-linejoin="round" stroke-width="5"/>
<path d="M329.537 389.235C346.561 395.738 356.53 398.432 376.441 391.668" fill="none" fill-rule="evenodd" opacity="1" stroke="#fec18a" stroke-linecap="round" stroke-linejoin="round" stroke-width="5"/>
<path d="M262.702 448.59C263.371 448.402 270.65 453.735 281.686 447.229" fill="none" fill-rule="evenodd" opacity="1" stroke="#fec18a" stroke-linecap="round" stroke-linejoin="round" stroke-width="5"/>
<path d="M248.753 523.125C248.226 522.967 261.362 531.977 276.256 522.052" fill="none" fill-rule="evenodd" opacity="1" stroke="#fec18a" stroke-linecap="round" stroke-linejoin="round" stroke-width="5"/>
</g>
<g opacity="1">
<path d="M296.626 207.226C296.626 207.226 281.085 189.212 261.357 180.624C254.027 177.433 236.41 166.006 236.183 158.534C235.963 151.349 247.192 150.745 246.393 145.353C245.136 136.877 215.382 125.657 208.073 107.327C202.715 93.8904 229.188 101.309 225.76 89.8599C224.452 85.4925 199.828 67.2185 202.037 48.7181C202.603 43.9711 206.908 47.9494 211.078 41.2901C214.471 35.8697 205.262 10.6942 218.009 7.29137C237.628 2.05401 249.681 49.9702 259.722 53.465C268.85 56.6419 266.044 49.5236 275.239 55.3775C284.372 61.1919 281.101 105.966 289.37 117.114C300.626 132.289 306.943 101.24 309.801 120.33C310.739 126.599 304.036 161.334 303.693 167.561C302.612 187.149 301.376 166.141 301.376 185.649" fill="#219a00" fill-rule="evenodd" opacity="1" stroke="#219a00" stroke-linecap="round" stroke-linejoin="round" stroke-width="1"/>
<g opacity="1">
<path d="M292.737 198.735C292.737 198.735 286.566 142.236 269.833 99.2344C257.501 67.5405 226.307 16.8691 226.307 16.8691C226.307 16.8691 245.612 65.359 262.48 103.083C281.235 145.03 292.737 198.735 292.737 198.735Z" fill="#116c00" fill-rule="evenodd" stroke="none"/>
<path d="M225.906 16.5625C225.895 16.5596 225.905 16.5896 225.906 16.5938C225.909 16.6072 225.934 16.6116 225.938 16.625C225.972 16.7445 226.017 16.8555 226.062 16.9688C226.141 17.1654 226.234 17.3659 226.312 17.5625C226.518 18.0775 226.7 18.579 226.906 19.0938C227.577 20.7662 228.263 22.454 228.938 24.125C231.004 29.2464 233.095 34.3581 235.188 39.4688C241.193 54.1341 247.295 68.7569 253.562 83.3125C258.283 94.275 263.347 105.111 267.719 116.219C274.165 132.597 279.511 149.398 284.25 166.344C286.453 174.22 288.5 182.14 290.406 190.094C290.911 192.201 291.43 194.324 291.906 196.438C292.026 196.967 292.134 197.47 292.25 198C292.264 198.064 292.251 198.011 292.344 198.438C292.317 198.473 292.467 198.65 292.688 198.812C292.908 198.975 293.098 199.067 293.125 199.031C293.134 199.036 293.12 199.001 293.125 199C293.134 199.005 293.121 198.97 293.125 198.969C293.136 198.926 293.102 198.821 293.094 198.75C293.072 198.555 293.054 198.351 293.031 198.156C292.967 197.61 292.911 197.077 292.844 196.531C292.643 194.908 292.44 193.277 292.219 191.656C291.591 187.046 290.874 182.436 290.125 177.844C287.914 164.281 285.236 150.81 281.938 137.469C278.591 123.933 274.656 110.443 269.438 97.5C265.784 88.44 261.479 79.6609 257.031 70.9688C252.267 61.6565 247.25 52.4756 242.094 43.375C238.239 36.5726 234.327 29.803 230.312 23.0938C229.375 21.5271 228.418 19.9659 227.469 18.4062C227.286 18.1051 227.035 17.6749 226.75 17.2812C226.641 17.0086 226.802 17.2845 226.562 17.125C226.361 16.8925 226.176 16.6302 225.906 16.5625ZM227.656 19.5C235.955 33.2065 243.926 47.1142 251.469 61.25C257.68 72.89 263.718 84.6916 268.656 96.9375C274.053 110.32 278.088 124.274 281.5 138.281C285.106 153.082 287.958 168.066 290.25 183.125C290.698 186.07 291.105 189.017 291.5 191.969C290.689 188.547 289.87 185.126 289 181.719C286.234 170.888 283.195 160.142 279.875 149.469C276.449 138.455 272.725 127.516 268.5 116.781C264.948 107.755 260.874 98.9523 257 90.0625C251.913 78.3886 246.979 66.6347 242.094 54.875C238.487 46.1924 234.906 37.4951 231.375 28.7812C230.253 26.0113 229.145 23.2423 228.031 20.4688C227.902 20.1476 227.785 19.8212 227.656 19.5Z" fill="#116c00" stroke="none"/>
</g>
<path d="M215.071 37.5689C212.756 34.9145 211.193 22.3287 212.598 15.5098C213.94 8.99306 218.183 6.21552 219.966 9.42522C222.43 13.8613 216.275 11.9455 215.176 20.6039C213.717 32.1038 215.244 37.7673 215.071 37.5689Z" fill="#aaff8d" fill-rule="evenodd" opacity="1" stroke="#aaff8d" stroke-linecap="round" stroke-linejoin="round" stroke-width="1"/>
<path d="M243.609 140.263C243.609 140.263 227.026 128.508 221.947 124.484C215.136 119.088 205.283 108.077 207.569 102.58C209.773 97.2785 220.319 97.0913 220.271 98.777C220.207 100.99 212.518 100.972 213.237 105.21C214.926 115.162 243.609 140.263 243.609 140.263Z" fill="#aaff8d" fill-rule="evenodd" opacity="1" stroke="#aaff8d" stroke-linecap="round" stroke-linejoin="round" stroke-width="1"/>
<path d="M307.151 118.333C306.613 117.082 300.15 128.282 287.292 123.713C278.29 120.514 279.871 69.1625 277.087 64.3811C274.777 60.414 273.194 59.5954 272.138 59.4065C267.72 58.616 260.493 53.8033 269.498 52.9835C289.559 51.1574 275.639 119.499 296.111 121.713C302.528 122.407 306.115 111.232 307.225 112.322C311.528 116.551 305.276 159.489 303.689 165.001C301.018 174.282 302.581 214.566 295.766 206.073C286.304 194.282 263.265 181.487 263.265 181.487C263.265 181.487 288.042 197.025 285.694 192.659C283.108 187.851 279.271 179.438 277.876 175.75C276.481 172.063 265.587 141.495 272.711 130.376C281.548 116.583 310.205 125.435 307.151 118.333Z" fill="#1c7700" fill-rule="evenodd" opacity="1" stroke="#1c7700" stroke-linecap="round" stroke-linejoin="round" stroke-width="1"/>
<path d="M373.444 1.14532C361.468 1.7548 333.273 36.2782 323.9 53.7781C323.244 55.0024 313.508 46.3893 305.357 58.2503C292.523 76.9253 300.715 114.111 295.492 122.502C289.257 132.517 281.845 121.852 276.625 134.472C272.199 145.173 278.279 160.229 281.108 171.028C282.339 175.725 298.021 207.972 298.021 207.972C298.021 207.972 304.563 196.025 319.213 178.028C336.941 156.25 350.928 148.712 353.788 140.31C356.658 131.879 349.355 128.594 353.693 115.032C358.204 100.931 381.862 88.0465 381.543 76.1617C381.223 64.277 368.575 68.8329 369.248 62.1438C370.365 51.0209 393.199 33.3462 391.283 23.4422C389.367 13.5383 383.257 22.1447 379.627 16.1285C375.667 9.56755 381.264 0.747367 373.444 1.14532Z" fill="#27d001" fill-rule="evenodd" opacity="1" stroke="#27d001" stroke-linecap="round" stroke-linejoin="round" stroke-width="1"/>
<path d="M298.87 192.593C298.87 192.593 308.877 125.249 323.768 95.4361C336.228 70.4923 374.48 20.664 374.48 20.664C374.48 20.664 336.024 89.3772 331.699 100.196C327.436 110.862 298.87 192.593 298.87 192.593Z" fill="#0d7900" fill-rule="evenodd" opacity="1" stroke="#0d7900" stroke-linecap="round" stroke-linejoin="round" stroke-width="0.25"/>
<path d="M368.684 84.6608C365.25 92.1706 358.913 106.541 358.913 106.541C358.913 106.541 369.256 96.3543 373.295 91.5148C375.151 89.2916 380.256 84.3442 381.46 78.8626C382.506 74.0949 380.926 68.7651 376.159 66.9294C372.407 65.4844 370.946 67.3791 370.527 73.1953C370.216 77.5165 369.466 82.2397 368.703 84.6538" fill="#9eff83" fill-rule="evenodd" opacity="1" stroke="#9eff83" stroke-linecap="round" stroke-linejoin="round" stroke-width="0.25"/>
<path d="M286.499 155.801C286.994 159.634 289.359 171.685 291.743 183.455C294.472 196.927 297.926 208.412 297.926 208.412C297.926 208.412 283.891 185.621 280.702 175.993C276.084 162.051 274.047 149.223 273.61 143.622C272.936 134.984 281.063 125.28 284.288 127.394C288.323 130.039 285.249 148.033 286.602 156.52" fill="#9eff83" fill-rule="evenodd" opacity="1" stroke="#9eff83" stroke-linecap="round" stroke-linejoin="round" stroke-width="0.25"/>
<path d="M298.123 208.216C298.123 208.216 316.386 163.278 333.19 146.732C341.102 138.941 343.965 133.328 345.144 129.267C346.652 124.072 350.282 117.772 353.318 116.342C354.729 115.678 351.38 120.678 352.543 124.817C353.474 128.129 354.262 132.098 354.806 135.318C356.122 143.115 353.088 145.384 343.766 152.875C330.852 163.252 298.123 208.216 298.123 208.216Z" fill="#2a9c02" fill-rule="evenodd" opacity="1" stroke="#2a9c02" stroke-linecap="round" stroke-linejoin="round" stroke-width="0.25"/>
<path d="M371.805 56.2084C371.781 56.2546 372.731 53.985 375.43 50.3611C378.129 46.7372 383.59 40.8111 384.497 39.6883C385.305 38.6883 387.639 35.5232 389.373 32.2243C390.096 30.848 390.715 29.4483 391.075 28.1729C392.047 24.7336 391.897 21.6148 390.688 21.5106C389.656 21.4216 388.984 24.2431 386.781 28.4814C384.578 32.7197 383.332 35.8155 383.241 36.0343C381.636 39.8943 375.066 50.0127 371.805 56.2084Z" fill="#2a9c02" fill-rule="evenodd" opacity="1" stroke="#2a9c02" stroke-linecap="round" stroke-linejoin="round" stroke-width="0.25"/>
</g>
</g>
</g>
</svg>
