<svg xmlns="http://www.w3.org/2000/svg" xmlns:xlink="http://www.w3.org/1999/xlink" width="617" height="359" viewBox="0 0 617 359">
  <defs>
    <style>
      .cls-1 {
        clip-path: url(#clip-Logo_white);
      }

      .cls-2 {
        fill: #fff;
        font-size: 123px;
        font-family: MonofurForPowerline, monofur for Powerline;
      }

      .cls-3 {
        fill: #ee7501;
        stroke: #ee7501;
      }

      .cls-11, .cls-12, .cls-13, .cls-14, .cls-15, .cls-16, .cls-3, .cls-4, .cls-5, .cls-6, .cls-7, .cls-8 {
        stroke-linecap: round;
        stroke-linejoin: round;
        stroke-miterlimit: 10;
      }

      .cls-11, .cls-12, .cls-13, .cls-14, .cls-15, .cls-16, .cls-3, .cls-4, .cls-5, .cls-6, .cls-7, .cls-8, .cls-9 {
        fill-rule: evenodd;
      }

      .cls-4 {
        fill: #f48416;
        stroke: #f48416;
      }

      .cls-5 {
        fill: #c55719;
        stroke: #c55719;
      }

      .cls-6 {
        fill: #fec18a;
      }

      .cls-6, .cls-7 {
        stroke: #fec18a;
      }

      .cls-7 {
        fill: none;
        stroke-width: 5px;
      }

      .cls-8 {
        fill: #219a00;
        stroke: #219a00;
      }

      .cls-10, .cls-9 {
        fill: #116c00;
      }

      .cls-11 {
        fill: #aaff8d;
        stroke: #aaff8d;
      }

      .cls-12 {
        fill: #1c7700;
        stroke: #1c7700;
      }

      .cls-13 {
        fill: #27d001;
        stroke: #27d001;
      }

      .cls-14 {
        fill: #0d7900;
        stroke: #0d7900;
      }

      .cls-14, .cls-15, .cls-16 {
        stroke-width: 0.25px;
      }

      .cls-15 {
        fill: #9eff83;
        stroke: #9eff83;
      }

      .cls-16 {
        fill: #2a9c02;
        stroke: #2a9c02;
      }
    </style>
    <clipPath id="clip-Logo_white">
      <rect width="617" height="359"/>
    </clipPath>
  </defs>
  <g id="Logo_white" class="cls-1">
    <g id="Gruppe_20" data-name="Gruppe 20" transform="translate(-4 2638.121)">
      <text id="unter" class="cls-2" transform="translate(0 -2438.63)"><tspan x="0" y="0">unter</tspan></text>
      <text id="egs" class="cls-2" transform="translate(436 -2438.63)"><tspan x="0" y="0">egs</tspan></text>
      <g id="Ebene-2" transform="translate(144.272 -2520.574)">
        <g id="Gruppe_19" data-name="Gruppe 19" transform="translate(163.728 -47.426)">
          <g id="Gruppe_16" data-name="Gruppe 16" transform="translate(9.591 106.614)">
            <path id="Pfad_5" data-name="Pfad 5" class="cls-3" d="M206.93,183.325c-33.475,7.65-27.246,42.467-26.452,58.171.91,18.017,12.406,48.3,17.052,61.114,2.8,7.729,14.872,54.669,32.32,54.87,16.457.189,25.739-40.914,29.346-54.681,3.569-13.623,10.008-29.388,14.475-57.519,3.965-24.975,13.321-55.771-21.613-62.438C248.092,182.085,218.152,180.761,206.93,183.325Z" transform="translate(-178.913 -176.335)"/>
            <path id="Pfad_6" data-name="Pfad 6" class="cls-4" d="M212.545,174c-.993-1.9-22.47,3.145-30.912,22.163-7.334,16.521-1.005,50.444.277,55.337.985,3.758,18.57,57.376,19.93,60.62.7,1.674,7.2,17.56,7.2,17.56s-5.025-20.242-9.694-44.238c-2.934-15.076-2.567-22.393-3.045-41.073-.43-16.793-1.9-33.912,16.895-41.774,18.312-7.661,50.475.432,48.664-9.941-1.195-6.84-31.273-19.624-36.075-19.208-9.279.8,4.981-9.236-4.912-.34" transform="translate(-178.151 -169.403)"/>
            <path id="Pfad_7" data-name="Pfad 7" class="cls-5" d="M263.132,180.83c2.008.153,27.226-1.58,38.235,3.26,9.8,4.308,16,10.791,17.272,19.367,2.125,14.367-.693,27.739-3.28,43.406-2.749,16.651-3.011,16.351-7.88,34.378-10.979,40.642-20.916,73.627-34.187,75.382-4.511.6-9.067-1.217-14.654-7.842a74.152,74.152,0,0,1-5.014-8.027s8.315,5.285,12.837,2.419c9.608-6.09,23.615-40.492,31.588-72.585,5.924-23.847,9.573-41.654,2.164-58.951-4.829-11.274-22.509-4.971-35.585-12.561-11.947-6.935-4.49-17.129-2.708-18.285" transform="translate(-220.288 -175.682)"/>
            <path id="Pfad_8" data-name="Pfad 8" class="cls-6" d="M194.975,299.766c-2.411-13.072.085-29.41,3.538-26.348s.636,10.216,1.8,25.178c1.125,14.456,6.514,33.191,5.1,33.472C203.7,332.409,197.918,315.719,194.975,299.766Z" transform="translate(-187.009 -227.267)"/>
            <path id="Pfad_9" data-name="Pfad 9" class="cls-6" d="M222.771,425.841c3.065-.478,4.6,15.7,4.038,16.1S219.746,426.313,222.771,425.841Z" transform="translate(-202.617 -312.569)"/>
            <path id="Pfad_10" data-name="Pfad 10" class="cls-7" d="M212.422,237.684c-14.582-1.674-17.957-8.673-18.865-9.59" transform="translate(-186.752 -202.171)"/>
            <path id="Pfad_11" data-name="Pfad 11" class="cls-7" d="M210.108,206.18a20.6,20.6,0,0,0,12,8.018" transform="translate(-195.993 -189.936)"/>
            <path id="Pfad_12" data-name="Pfad 12" class="cls-7" d="M302.592,264.267c4.1,1.458,7.567,2.014,12.338-.189" transform="translate(-247.628 -222.261)"/>
            <path id="Pfad_13" data-name="Pfad 13" class="cls-7" d="M380.05,225.958c-7.4,9.154-13,8.2-13.51,8.421" transform="translate(-283.33 -200.978)"/>
            <path id="Pfad_14" data-name="Pfad 14" class="cls-7" d="M241.7,356.48a11.9,11.9,0,0,0,7.007-.112" transform="translate(-213.628 -273.788)"/>
            <path id="Pfad_15" data-name="Pfad 15" class="cls-7" d="M329.537,389.235c7.519,2.872,11.923,4.062,20.717,1.075" transform="translate(-262.671 -292.137)"/>
            <path id="Pfad_16" data-name="Pfad 16" class="cls-7" d="M262.7,447.83a8.507,8.507,0,0,0,8.385-.6" transform="translate(-225.357 -324.516)"/>
            <path id="Pfad_17" data-name="Pfad 17" class="cls-7" d="M248.744,522.526a11,11,0,0,0,12.148-.474" transform="translate(-217.56 -366.291)"/>
          </g>
          <g id="Gruppe_18" data-name="Gruppe 18" transform="translate(0)">
            <path id="Pfad_18" data-name="Pfad 18" class="cls-8" d="M260.926,131.727s-9.684-11.225-21.977-16.577c-4.568-1.988-15.545-9.109-15.687-13.765-.137-4.477,6.86-4.854,6.362-8.214-.783-5.282-19.324-12.273-23.879-23.7-3.339-8.373,13.158-3.75,11.021-10.884-.815-2.721-16.159-14.109-14.783-25.637.353-2.958,3.035-.479,5.634-4.629,2.114-3.378-3.624-19.065,4.319-21.186,12.225-3.264,19.736,26.595,25.993,28.773,5.688,1.98,3.939-2.456,9.669,1.192,5.691,3.623,3.653,31.524,8.806,38.47,7.014,9.456,10.95-9.892,12.731,2,.585,3.906-3.592,25.551-3.806,29.431-.674,12.206-1.444-.885-1.444,11.271" transform="translate(-201.897 -3.303)"/>
            <g id="Gruppe_17" data-name="Gruppe 17" transform="translate(14.958 9.615)">
              <path id="Pfad_19" data-name="Pfad 19" class="cls-9" d="M267.7,130.2s-3.845-35.207-14.272-62c-7.685-19.75-27.123-51.325-27.123-51.325s12.03,30.216,22.541,53.723C260.535,96.731,267.7,130.2,267.7,130.2Z" transform="translate(-226.054 -16.678)"/>
              <path id="Pfad_20" data-name="Pfad 20" class="cls-10" d="M225.9,16.562c-.007,0,0,.017,0,.02s.017.011.02.019a2.222,2.222,0,0,0,.077.214c.049.123.107.247.156.37.128.321.242.633.37.954.418,1.042.846,2.094,1.266,3.135q1.931,4.787,3.895,9.561,5.613,13.708,11.45,27.321c2.942,6.831,6.1,13.583,8.822,20.505a321.851,321.851,0,0,1,10.3,31.235q2.059,7.362,3.836,14.8c.315,1.313.638,2.636.935,3.953.075.33.142.643.214.973.009.04,0,.007.059.273-.017.022.077.132.214.233s.255.159.272.137c.006,0,0-.019,0-.019s0-.019,0-.019a.682.682,0,0,0-.019-.136c-.014-.122-.025-.249-.039-.37-.04-.34-.075-.672-.117-1.013-.125-1.011-.252-2.028-.389-3.038-.391-2.873-.838-5.745-1.3-8.607-1.378-8.452-3.047-16.846-5.1-25.159A185.825,185.825,0,0,0,253.03,67c-2.277-5.646-4.96-11.116-7.731-16.533-2.969-5.8-6.095-11.524-9.308-17.195q-3.6-6.358-7.342-12.638c-.584-.976-1.18-1.949-1.772-2.921-.114-.188-.27-.456-.448-.7-.068-.17.032,0-.117-.1C226.188,16.768,226.072,16.6,225.9,16.562Zm1.09,1.83q7.757,12.812,14.839,26.016a231.337,231.337,0,0,1,10.71,22.238,187.329,187.329,0,0,1,8,25.763c2.247,9.223,4.024,18.56,5.452,27.944.279,1.835.533,3.672.779,5.511-.505-2.132-1.016-4.264-1.558-6.387q-2.585-10.124-5.686-20.1c-2.135-6.863-4.455-13.68-7.088-20.369-2.213-5.624-4.752-11.11-7.166-16.649-3.17-7.274-6.244-14.6-9.288-21.927q-3.371-8.116-6.679-16.26c-.7-1.726-1.39-3.451-2.084-5.18C227.148,18.8,227.075,18.593,226.995,18.393Z" transform="translate(-225.901 -16.562)"/>
            </g>
            <path id="Pfad_21" data-name="Pfad 21" class="cls-11" d="M213.938,26.459c-1.443-1.654-2.417-9.5-1.541-13.746.836-4.061,3.48-5.792,4.591-3.792,1.535,2.764-2.3,1.57-2.985,6.966A36.315,36.315,0,0,0,213.938,26.459Z" transform="translate(-205.729 -3.754)"/>
            <path id="Pfad_22" data-name="Pfad 22" class="cls-11" d="M229.9,124.273s-10.333-7.325-13.5-9.832c-4.244-3.362-10.384-10.224-8.959-13.649,1.373-3.3,7.945-3.42,7.915-2.37-.04,1.379-4.831,1.368-4.383,4.009C212.026,108.632,229.9,124.273,229.9,124.273Z" transform="translate(-203.908 -37.576)"/>
            <path id="Pfad_23" data-name="Pfad 23" class="cls-12" d="M290.612,93.692c-.335-.78-4.363,6.2-12.375,3.352-5.609-1.993-4.624-33.992-6.359-36.972-1.439-2.472-2.426-2.982-3.084-3.1-2.753-.493-7.256-3.492-1.645-4,12.5-1.138,3.827,41.448,16.584,42.828,4,.432,6.234-6.531,6.926-5.852,2.681,2.635-1.215,29.392-2.2,32.826-1.664,5.783-.69,30.886-4.937,25.593-5.9-7.347-20.253-15.32-20.253-15.32s15.439,9.682,13.976,6.962c-1.611-3-4-8.238-4.872-10.537s-7.658-21.346-3.219-28.274C274.658,92.6,292.515,98.117,290.612,93.692Z" transform="translate(-225.024 -20.66)"/>
            <path id="Pfad_24" data-name="Pfad 24" class="cls-13" d="M336.367,1.14c-7.463.38-25.032,21.893-30.873,32.8-.409.763-6.476-4.6-11.555,2.787-8,11.637-2.893,34.809-6.147,40.038-3.885,6.241-8.5-.405-11.757,7.459-2.758,6.668,1.031,16.05,2.794,22.779.767,2.927,10.539,23.021,10.539,23.021s4.077-7.445,13.206-18.659c11.047-13.571,19.763-18.268,21.545-23.5,1.788-5.254-2.762-7.3-.059-15.752,2.811-8.787,17.553-16.816,17.354-24.222s-8.081-4.567-7.661-8.735c.7-6.931,14.925-17.945,13.731-24.116s-5-.809-7.263-4.557C337.752,6.389,341.24.892,336.367,1.14Z" transform="translate(-229.469 -1.132)"/>
            <path id="Pfad_25" data-name="Pfad 25" class="cls-14" d="M298.87,127.8s6.236-41.965,15.515-60.542c7.764-15.543,31.6-46.593,31.6-46.593s-23.963,42.818-26.658,49.559C316.671,76.87,298.87,127.8,298.87,127.8Z" transform="translate(-238.442 -8.493)"/>
            <path id="Pfad_26" data-name="Pfad 26" class="cls-15" d="M365,77.8c-2.14,4.68-6.089,13.634-6.089,13.634s6.445-6.348,8.962-9.363c1.157-1.385,4.338-4.468,5.088-7.884.652-2.971-.333-6.292-3.3-7.436-2.338-.9-3.248.28-3.51,3.9a37.056,37.056,0,0,1-1.137,7.14" transform="translate(-261.07 -25.754)"/>
            <path id="Pfad_27" data-name="Pfad 27" class="cls-15" d="M281.627,144.985c.308,2.388,1.782,9.9,3.268,17.232,1.7,8.395,3.853,15.552,3.853,15.552s-8.746-14.2-10.733-20.2A95.349,95.349,0,0,1,273.6,137.4c-.42-5.383,4.644-11.43,6.654-10.112,2.514,1.648.6,12.861,1.442,18.15" transform="translate(-228.908 -48.605)"/>
            <path id="Pfad_28" data-name="Pfad 28" class="cls-16" d="M298.123,173.57s11.38-28,21.852-38.313c4.93-4.855,6.714-8.353,7.449-10.883.94-3.237,3.2-7.163,5.093-8.054.879-.414-1.208,2.7-.483,5.281a66.782,66.782,0,0,1,1.41,6.544c.82,4.859-1.07,6.272-6.879,10.94C318.518,145.551,298.123,173.57,298.123,173.57Z" transform="translate(-238.161 -44.528)"/>
            <path id="Pfad_29" data-name="Pfad 29" class="cls-16" d="M371.8,43.131a19.54,19.54,0,0,1,2.259-3.644c1.682-2.258,5.085-5.951,5.65-6.651a32.882,32.882,0,0,0,3.038-4.651,13.583,13.583,0,0,0,1.061-2.525c.606-2.143.512-4.087-.241-4.152-.643-.055-1.062,1.7-2.435,4.344s-2.149,4.57-2.206,4.706C377.931,32.965,373.837,39.271,371.8,43.131Z" transform="translate(-265.929 -8.811)"/>
          </g>
        </g>
      </g>
    </g>
  </g>
</svg>
