<svg id="Ebene_1" data-name="Ebene 1" xmlns="http://www.w3.org/2000/svg" xmlns:xlink="http://www.w3.org/1999/xlink" viewBox="0 0 606.71 288.76"><defs><style>.cls-1,.cls-9{fill:none;}.cls-2{clip-path:url(#clip-path);}.cls-3{isolation:isolate;}.cls-4{fill:#fff;}.cls-5{fill:#ee7501;stroke:#ee7501;}.cls-10,.cls-13,.cls-14,.cls-15,.cls-16,.cls-17,.cls-18,.cls-5,.cls-6,.cls-7,.cls-8,.cls-9{stroke-linecap:round;stroke-linejoin:round;}.cls-10,.cls-11,.cls-13,.cls-14,.cls-15,.cls-16,.cls-17,.cls-18,.cls-5,.cls-6,.cls-7,.cls-8{fill-rule:evenodd;}.cls-6{fill:#f48416;stroke:#f48416;}.cls-7{fill:#c55719;stroke:#c55719;}.cls-8{fill:#fec18a;}.cls-8,.cls-9{stroke:#fec18a;}.cls-9{stroke-width:5px;}.cls-10{fill:#219a00;stroke:#219a00;}.cls-11,.cls-12{fill:#116c00;}.cls-13{fill:#aaff8d;stroke:#aaff8d;}.cls-14{fill:#1c7700;stroke:#1c7700;}.cls-15{fill:#27d001;stroke:#27d001;}.cls-16{fill:#0d7900;stroke:#0d7900;}.cls-16,.cls-17,.cls-18{stroke-width:0.25px;}.cls-17{fill:#9eff83;stroke:#9eff83;}.cls-18{fill:#2a9c02;stroke:#2a9c02;}</style><clipPath id="clip-path" transform="translate(-2.41 -69.62)"><rect class="cls-1" width="617" height="359"/></clipPath></defs><g class="cls-2"><g id="Logo_white" data-name="Logo white"><g id="Gruppe_20" data-name="Gruppe 20"><g id="unter" class="cls-3"><g class="cls-3"><path class="cls-4" d="M51.09,175.18A23.48,23.48,0,0,1,44,192.41a23.43,23.43,0,0,1-17.22,7.13,23.43,23.43,0,0,1-17.22-7.13,23.48,23.48,0,0,1-7.12-17.23V149.53q0-3.85,3.84-3.85t3.84,3.85v25.65A16.1,16.1,0,0,0,15,187a16,16,0,0,0,11.76,4.89A16,16,0,0,0,38.51,187a16.1,16.1,0,0,0,4.9-11.78V149.53q0-3.85,3.84-3.85t3.84,3.85Z" transform="translate(-2.41 -69.62)"/><path class="cls-4" d="M112.59,195.69q0,3.85-3.84,3.85t-3.84-3.85V168.76a15.37,15.37,0,0,0-26.24-10.88,14.83,14.83,0,0,0-4.51,10.88v26.93q0,3.85-3.85,3.85t-3.84-3.85V149.53q0-3.85,3.84-3.85t3.85,5.89a23,23,0,0,1,31.67.88,22.23,22.23,0,0,1,6.76,16.31Z" transform="translate(-2.41 -69.62)"/><path class="cls-4" d="M176.71,187.92a4.56,4.56,0,0,1-.82,2.37,19.56,19.56,0,0,1-8.1,6.78,23.61,23.61,0,0,1-10.35,2.47,23.1,23.1,0,0,1-23.06-23.09V153.37h-7.69c-2.57,0-3.85-1.29-3.85-3.85s1.28-3.84,3.85-3.84h7.69V126.46q0-3.84,3.84-3.84t3.84,3.84v19.22h19.22q3.84,0,3.84,3.84c0,2.56-1.28,3.85-3.84,3.85H142.06v23.09a15.4,15.4,0,0,0,15.38,15.39,13.69,13.69,0,0,0,7.48-2,34.43,34.43,0,0,0,4.46-3.76q2.06-2,3.33-2a4,4,0,0,1,2.77,1.15A3.59,3.59,0,0,1,176.71,187.92Z" transform="translate(-2.41 -69.62)"/><path class="cls-4" d="M238.21,184.08a4.43,4.43,0,0,1-.62,2.1A25.14,25.14,0,0,1,227,196a29.78,29.78,0,0,1-14.09,3.54A28.44,28.44,0,0,1,193,191.9a25.81,25.81,0,0,1,0-38.58,28.49,28.49,0,0,1,19.89-7.64,28,28,0,0,1,8.76,1.49,37,37,0,0,1,10.2,5.38q6.32,4.6,6.31,8.76a3.4,3.4,0,0,1-2,3.13L197.31,185.3a20.75,20.75,0,0,0,15.58,6.55q9.88,0,16-6.89c.48-.62,1.2-1.56,2.15-2.83a4,4,0,0,1,3.13-1.91,4,4,0,0,1,2.77,1.16A3.59,3.59,0,0,1,238.21,184.08Zm-9.65-24.23a20.88,20.88,0,0,0-15.68-6.48,21.23,21.23,0,0,0-14.44,5.37,18.12,18.12,0,0,0-5.3,20.07Z" transform="translate(-2.41 -69.62)"/><path class="cls-4" d="M299.71,158.13a3.59,3.59,0,0,1-1.21,2.69,3.65,3.65,0,0,1-5.61-.33q-7.06-7.12-15-7.12a19.24,19.24,0,0,0-19.22,19.24v23.08q0,3.85-3.85,3.85T251,195.69V149.53q0-3.85,3.84-3.85a3.49,3.49,0,0,1,3.69,2.87,34.25,34.25,0,0,1,.16,5.23,25.81,25.81,0,0,1,19.22-8.1,27.7,27.7,0,0,1,11.63,2.66,21.3,21.3,0,0,1,9.22,7.33A4.48,4.48,0,0,1,299.71,158.13Z" transform="translate(-2.41 -69.62)"/></g></g><g id="egs" class="cls-3"><g class="cls-3"><path class="cls-4" d="M489.71,184.08a4.43,4.43,0,0,1-.62,2.1A25.14,25.14,0,0,1,478.48,196a29.78,29.78,0,0,1-14.09,3.54,28.44,28.44,0,0,1-19.89-7.64,25.81,25.81,0,0,1,0-38.58,28.49,28.49,0,0,1,19.89-7.64,28,28,0,0,1,8.76,1.49,37,37,0,0,1,10.2,5.38q6.3,4.6,6.31,8.76a3.4,3.4,0,0,1-2,3.13L448.81,185.3a20.75,20.75,0,0,0,15.58,6.55q9.89,0,16-6.89c.48-.62,1.2-1.56,2.15-2.83a4,4,0,0,1,3.13-1.91,4,4,0,0,1,2.77,1.16A3.59,3.59,0,0,1,489.71,184.08Zm-9.65-24.23a20.88,20.88,0,0,0-15.68-6.48,21.23,21.23,0,0,0-14.44,5.37,18.12,18.12,0,0,0-5.3,20.07Z" transform="translate(-2.41 -69.62)"/><path class="cls-4" d="M551.16,149.52c0,2.09-1.1,3.33-3.28,3.74a36.64,36.64,0,0,1-5.74.11,17,17,0,0,1,4.4,11.53q0,9.22-8.25,14.91,12.87,6.72,12.87,19.68,0,10.15-8.61,16.86a30.11,30.11,0,0,1-36.6,0q-8.61-6.71-8.61-16.86,0-3.84,3.85-3.84t3.84,3.84q0,6.91,6.36,11.33a22.44,22.44,0,0,0,25.72,0q6.36-4.47,6.36-11.33t-6.36-11.32a21.63,21.63,0,0,0-12.86-4,23.68,23.68,0,0,1-15.17-5.18q-7.06-5.58-7.12-14t7.12-14.05a23.79,23.79,0,0,1,15.17-5.17h23.06Q551.17,145.68,551.16,149.52Zm-12.3,15.38q0-5.18-4.87-8.61a17.7,17.7,0,0,0-19.48,0q-4.86,3.38-4.87,8.61t4.87,8.61a17.7,17.7,0,0,0,19.48,0Q538.85,170.08,538.86,164.9Z" transform="translate(-2.41 -69.62)"/><path class="cls-4" d="M609.12,182.19q0,8.26-8.25,13.14a30.06,30.06,0,0,1-15.79,4.21A32.08,32.08,0,0,1,572.53,197q-6.91-2.93-9.64-8.12a4.44,4.44,0,0,1-.56-2,3.54,3.54,0,0,1,1.23-2.68,4,4,0,0,1,2.77-1.13,4.1,4.1,0,0,1,3.22,2q5,6.75,15.53,6.75,10.35,0,14.76-5.7a7.1,7.1,0,0,0,1.59-4c0-2.08-1.19-4-3.58-5.8a19.07,19.07,0,0,0-6.56-3,27.05,27.05,0,0,0-7-.83,21.76,21.76,0,0,1-11.83-3.28q-6.06-3.84-6.05-10.19T572.68,149a22.48,22.48,0,0,1,12-3.28,24.42,24.42,0,0,1,8.36,1.49,14.29,14.29,0,0,1,7,4.66,4.18,4.18,0,0,1,1,2.46,3.69,3.69,0,0,1-1.2,2.71,3.86,3.86,0,0,1-2.79,1.18q-.68,0-4.23-2.4a14.14,14.14,0,0,0-8.13-2.41c-4.64,0-7.91,1.26-9.78,3.79a3.15,3.15,0,0,0-.82,2c0,2.42,2.13,4.17,6.4,5.22a20.29,20.29,0,0,0,5.13.57,28.71,28.71,0,0,1,15.47,4.26Q609.13,174.14,609.12,182.19Z" transform="translate(-2.41 -69.62)"/></g></g><g id="Ebene-2"><g id="Gruppe_19" data-name="Gruppe 19"><g id="Gruppe_16" data-name="Gruppe 16"><path id="Pfad_5" data-name="Pfad 5" class="cls-5" d="M341.61,183.73c-33.48,7.65-27.25,42.46-26.45,58.17.91,18,12.4,48.3,17,61.11,2.8,7.73,14.87,54.67,32.32,54.87,16.46.19,25.74-40.91,29.34-54.68,3.57-13.62,10-29.39,14.48-57.52,4-25,13.32-55.77-21.61-62.44C382.77,182.49,352.83,181.16,341.61,183.73Z" transform="translate(-2.41 -69.62)"/><path id="Pfad_6" data-name="Pfad 6" class="cls-6" d="M348,181.33c-1-1.9-22.47,3.15-30.91,22.17-7.33,16.52-1,50.44.28,55.33,1,3.76,18.57,57.38,19.93,60.62.7,1.68,7.2,17.56,7.2,17.56s-5-20.24-9.69-44.24c-2.94-15.07-2.57-22.39-3.05-41.07-.43-16.79-1.9-33.91,16.9-41.77,18.31-7.66,50.47.43,48.66-9.94-1.2-6.84-31.27-19.63-36.08-19.21-9.27.8,5-9.24-4.91-.34" transform="translate(-2.41 -69.62)"/><path id="Pfad_7" data-name="Pfad 7" class="cls-7" d="M356.43,181.88c2,.16,27.23-1.58,38.24,3.26,9.8,4.31,16,10.79,17.27,19.37,2.13,14.37-.69,27.74-3.28,43.41-2.75,16.65-3,16.35-7.88,34.37-11,40.65-20.91,73.63-34.19,75.39-4.51.6-9.06-1.22-14.65-7.85a73.69,73.69,0,0,1-5-8s8.31,5.28,12.83,2.42c9.61-6.09,23.62-40.5,31.59-72.59,5.93-23.85,9.58-41.65,2.17-58.95-4.83-11.27-22.51-5-35.59-12.56-11.95-6.94-4.49-17.13-2.71-18.29" transform="translate(-2.41 -69.62)"/><path id="Pfad_8" data-name="Pfad 8" class="cls-8" d="M321.56,249.23c-2.41-13.07.08-29.41,3.53-26.34s.64,10.21,1.81,25.17c1.12,14.46,6.51,33.2,5.1,33.48C330.28,281.88,324.5,265.19,321.56,249.23Z" transform="translate(-2.41 -69.62)"/><path id="Pfad_9" data-name="Pfad 9" class="cls-8" d="M333.74,290c3.07-.48,4.6,15.7,4,16.1S330.72,290.48,333.74,290Z" transform="translate(-2.41 -69.62)"/><path id="Pfad_10" data-name="Pfad 10" class="cls-9" d="M339.26,212.25c-14.58-1.68-18-8.67-18.86-9.59" transform="translate(-2.41 -69.62)"/><path id="Pfad_11" data-name="Pfad 11" class="cls-9" d="M327.71,193a20.6,20.6,0,0,0,12,8" transform="translate(-2.41 -69.62)"/><path id="Pfad_12" data-name="Pfad 12" class="cls-9" d="M368.56,218.74c4.1,1.46,7.56,2,12.33-.19" transform="translate(-2.41 -69.62)"/><path id="Pfad_13" data-name="Pfad 13" class="cls-9" d="M410.31,201.72c-7.4,9.15-13,8.2-13.51,8.42" transform="translate(-2.41 -69.62)"/><path id="Pfad_14" data-name="Pfad 14" class="cls-9" d="M341.66,259.43a12,12,0,0,0,7-.11" transform="translate(-2.41 -69.62)"/><path id="Pfad_15" data-name="Pfad 15" class="cls-9" d="M380.46,273.83c7.52,2.88,11.92,4.07,20.71,1.08" transform="translate(-2.41 -69.62)"/><path id="Pfad_16" data-name="Pfad 16" class="cls-9" d="M350.93,300.05a8.53,8.53,0,0,0,8.39-.6" transform="translate(-2.41 -69.62)"/><path id="Pfad_17" data-name="Pfad 17" class="cls-9" d="M344.78,333a11,11,0,0,0,12.14-.47" transform="translate(-2.41 -69.62)"/></g><g id="Gruppe_18" data-name="Gruppe 18"><path id="Pfad_18" data-name="Pfad 18" class="cls-10" d="M363,198.55s-9.69-11.23-22-16.58c-4.57-2-15.54-9.11-15.69-13.77-.13-4.47,6.86-4.85,6.37-8.21-.79-5.28-19.33-12.27-23.88-23.7-3.34-8.37,13.16-3.75,11-10.88-.82-2.73-16.16-14.11-14.78-25.64.35-3,3-.48,5.63-4.63C311.83,91.76,306.1,76.07,314,74c12.22-3.26,19.73,26.6,26,28.78,5.69,2,3.94-2.46,9.67,1.19s3.65,31.52,8.81,38.47c7,9.45,10.95-9.89,12.73,2,.58,3.9-3.59,25.55-3.81,29.43-.67,12.21-1.44-.89-1.44,11.27" transform="translate(-2.41 -69.62)"/><g id="Gruppe_17" data-name="Gruppe 17"><path id="Pfad_19" data-name="Pfad 19" class="cls-11" d="M360.6,193.26s-3.84-35.21-14.27-62c-7.68-19.75-27.12-51.33-27.12-51.33s12,30.22,22.54,53.73C353.44,159.79,360.6,193.26,360.6,193.26Z" transform="translate(-2.41 -69.62)"/><path id="Pfad_20" data-name="Pfad 20" class="cls-12" d="M319,79.74s0,0,0,0l0,0a1.72,1.72,0,0,0,.07.21l.16.37c.13.32.24.63.37,1,.42,1,.85,2.1,1.27,3.14q1.92,4.78,3.89,9.56,5.61,13.71,11.45,27.32c2.94,6.83,6.1,13.58,8.82,20.51a319.52,319.52,0,0,1,10.3,31.23q2.07,7.37,3.84,14.8c.31,1.31.64,2.64.93,3.95.08.33.15.65.22,1l.06.27s.07.13.21.23.26.16.27.14,0,0,0,0v0a.59.59,0,0,0,0-.13c0-.13,0-.25,0-.37,0-.34-.07-.68-.11-1-.13-1-.25-2-.39-3-.39-2.87-.84-5.74-1.3-8.6-1.38-8.45-3.05-16.85-5.1-25.16a186.72,186.72,0,0,0-7.79-24.91c-2.28-5.64-5-11.11-7.73-16.53-3-5.8-6.1-11.52-9.31-17.19q-3.6-6.36-7.34-12.64c-.59-1-1.18-2-1.78-2.92-.11-.19-.27-.46-.44-.7s0,0-.12-.1S319.13,79.77,319,79.74Zm1.09,1.83q7.76,12.81,14.84,26a234.26,234.26,0,0,1,10.71,22.24,188.2,188.2,0,0,1,8,25.76c2.24,9.23,4,18.56,5.45,27.95.28,1.83.53,3.67.78,5.51-.51-2.13-1-4.27-1.56-6.39q-2.58-10.12-5.69-20.1c-2.13-6.86-4.45-13.68-7.09-20.37-2.21-5.62-4.75-11.11-7.16-16.65-3.17-7.27-6.25-14.6-9.29-21.92q-3.37-8.11-6.68-16.26c-.7-1.73-1.39-3.45-2.08-5.18l-.23-.6Z" transform="translate(-2.41 -69.62)"/></g><path id="Pfad_21" data-name="Pfad 21" class="cls-13" d="M312.21,92.83c-1.44-1.66-2.42-9.5-1.54-13.75.83-4.06,3.48-5.79,4.59-3.79,1.53,2.76-2.3,1.57-3,7A36.42,36.42,0,0,0,312.21,92.83Z" transform="translate(-2.41 -69.62)"/><path id="Pfad_22" data-name="Pfad 22" class="cls-13" d="M330,156.82s-10.33-7.33-13.5-9.83c-4.24-3.37-10.38-10.23-9-13.65s8-3.42,7.92-2.37c0,1.38-4.83,1.37-4.39,4C312.12,141.18,330,156.82,330,156.82Z" transform="translate(-2.41 -69.62)"/><path id="Pfad_23" data-name="Pfad 23" class="cls-14" d="M369.59,143.15c-.34-.78-4.37,6.2-12.38,3.36-5.61-2-4.62-34-6.36-37-1.44-2.47-2.42-3-3.08-3.1-2.75-.49-7.26-3.49-1.65-4,12.5-1.13,3.83,41.45,16.59,42.83,4,.43,6.23-6.53,6.92-5.85,2.69,2.63-1.21,29.39-2.2,32.83-1.66,5.78-.69,30.88-4.93,25.59-5.9-7.35-20.26-15.32-20.26-15.32s15.44,9.68,14,7c-1.61-3-4-8.24-4.87-10.54s-7.66-21.34-3.22-28.27C353.63,142.06,371.49,147.58,369.59,143.15Z" transform="translate(-2.41 -69.62)"/><path id="Pfad_24" data-name="Pfad 24" class="cls-15" d="M410.9,70.13c-7.47.38-25,21.89-30.87,32.8-.41.76-6.48-4.6-11.56,2.79-8,11.63-2.89,34.81-6.15,40-3.88,6.25-8.5-.4-11.75,7.46-2.76,6.67,1,16,2.79,22.78.77,2.93,10.54,23,10.54,23s4.08-7.44,13.21-18.66c11-13.57,19.76-18.26,21.54-23.5s-2.76-7.3-.06-15.75c2.81-8.78,17.55-16.81,17.36-24.22s-8.09-4.57-7.67-8.73c.7-6.94,14.93-18,13.74-24.12s-5-.81-7.27-4.56C412.28,75.38,415.77,69.88,410.9,70.13Z" transform="translate(-2.41 -69.62)"/><path id="Pfad_25" data-name="Pfad 25" class="cls-16" d="M364.43,189.43s6.23-42,15.51-60.54c7.77-15.55,31.6-46.6,31.6-46.6s-24,42.82-26.65,49.56S364.43,189.43,364.43,189.43Z" transform="translate(-2.41 -69.62)"/><path id="Pfad_26" data-name="Pfad 26" class="cls-17" d="M407.93,122.17c-2.14,4.68-6.09,13.63-6.09,13.63s6.45-6.35,9-9.36c1.16-1.39,4.34-4.47,5.09-7.89.65-3-.33-6.29-3.3-7.43-2.34-.9-3.25.28-3.51,3.9a36.76,36.76,0,0,1-1.14,7.14" transform="translate(-2.41 -69.62)"/><path id="Pfad_27" data-name="Pfad 27" class="cls-17" d="M356.72,166.5c.31,2.39,1.78,9.9,3.27,17.23,1.7,8.4,3.85,15.56,3.85,15.56s-8.75-14.2-10.73-20.2a95.5,95.5,0,0,1-4.42-20.17c-.42-5.39,4.65-11.43,6.66-10.12,2.51,1.65.6,12.87,1.44,18.15" transform="translate(-2.41 -69.62)"/><path id="Pfad_28" data-name="Pfad 28" class="cls-18" d="M364,199.16s11.38-28,21.85-38.31c4.93-4.85,6.72-8.35,7.45-10.88.94-3.24,3.2-7.17,5.1-8.06.87-.41-1.21,2.7-.49,5.28a66.37,66.37,0,0,1,1.41,6.55c.82,4.86-1.07,6.27-6.88,10.94C384.36,171.14,364,199.16,364,199.16Z" transform="translate(-2.41 -69.62)"/><path id="Pfad_29" data-name="Pfad 29" class="cls-18" d="M409.87,104.44a20.1,20.1,0,0,1,2.26-3.64c1.68-2.26,5.08-6,5.65-6.65a33.77,33.77,0,0,0,3-4.65A13.68,13.68,0,0,0,421.88,87c.6-2.14.51-4.09-.24-4.15s-1.06,1.7-2.44,4.34-2.15,4.57-2.2,4.71C416,94.28,411.91,100.58,409.87,104.44Z" transform="translate(-2.41 -69.62)"/></g></g></g></g></g></g></svg>